<?xml version="1.0" encoding="utf-8"?>
<!-- Generator: Adobe Illustrator 16.0.3, SVG Export Plug-In . SVG Version: 6.00 Build 0)  -->
<!DOCTYPE svg PUBLIC "-//W3C//DTD SVG 1.1//EN" "http://www.w3.org/Graphics/SVG/1.1/DTD/svg11.dtd">
<svg version="1.1" id="Layer_1" xmlns="http://www.w3.org/2000/svg" xmlns:xlink="http://www.w3.org/1999/xlink" x="0px" y="0px"
	 width="271.319px" height="90.831px" viewBox="0 0 271.319 90.831" enable-background="new 0 0 271.319 90.831"
	 xml:space="preserve">
<g>
	<g>
		<path fill="#5A5B5D" d="M104.24,61.793h-3.314c-0.947,0-1.721-0.299-2.32-0.9c-0.601-0.598-0.899-1.371-0.899-2.318V45.694
			c0-1.515-0.458-2.619-1.374-3.314c-0.916-0.694-1.941-1.042-3.078-1.042s-2.147,0.347-3.031,1.042
			c-0.885,0.695-1.326,1.799-1.326,3.314v16.1h-6.629V47.02c0-4.293,1.12-7.165,3.362-8.618c2.24-1.452,4.719-2.24,7.435-2.368
			c2.777,0,5.334,0.727,7.671,2.178c2.334,1.453,3.503,4.389,3.503,8.808V61.793z"/>
		<path fill="#5A5B5D" d="M123.322,60.752c-1.326,0.695-2.732,1.119-4.215,1.279c-1.484,0.156-2.793,0.234-3.93,0.234
			c-2.273,0-4.261-0.613-5.966-1.846c-1.705-1.23-2.558-3.268-2.558-6.107c0-2.652,0.773-4.547,2.32-5.684
			c1.546-1.135,3.519-1.894,5.919-2.273c0.315,0,0.694-0.047,1.136-0.141c0.441-0.095,0.947-0.173,1.515-0.236
			c2.778-0.379,4.167-1.199,4.167-2.463c0-0.947-0.49-1.563-1.468-1.847c-0.979-0.284-1.879-0.426-2.699-0.426
			c-0.885,0-1.673,0.127-2.368,0.378c-0.695,0.253-1.2,0.727-1.515,1.421h-6.345c0.251-1.957,1.137-3.566,2.652-4.83
			c1.705-1.452,4.134-2.178,7.292-2.178c3.535,0,6.188,0.601,7.955,1.799c1.831,1.264,2.747,3.031,2.747,5.304v8.619
			c0,2.525-0.459,4.498-1.374,5.918C125.673,59.094,124.584,60.122,123.322,60.752z M121.806,49.104
			c-0.885,0.443-2.116,0.852-3.693,1.23l-2.178,0.475c-1.136,0.314-1.958,0.725-2.462,1.23c-0.442,0.695-0.663,1.389-0.663,2.084
			c0,0.947,0.285,1.703,0.853,2.271c0.568,0.506,1.388,0.758,2.462,0.758c1.767,0,3.156-0.504,4.167-1.516
			c1.009-1.008,1.515-2.398,1.515-4.166V49.104z"/>
		<path fill="#5A5B5D" d="M152.82,61.793h-3.314c-0.947,0-1.721-0.299-2.32-0.9c-0.602-0.598-0.9-1.371-0.9-2.318V45.694
			c0-1.515-0.457-2.619-1.373-3.314c-0.914-0.694-1.941-1.042-3.076-1.042c-1.137,0-2.148,0.347-3.031,1.042
			c-0.885,0.695-1.326,1.799-1.326,3.314v16.1h-6.629V47.02c0-4.293,1.121-7.165,3.362-8.618c2.24-1.452,4.72-2.24,7.435-2.368
			c2.775,0,5.334,0.727,7.67,2.178c2.334,1.453,3.504,4.389,3.504,8.808V61.793z"/>
		<path fill="#5A5B5D" d="M158.927,59.522c-1.326-1.137-2.273-2.668-2.842-4.594s-0.852-3.93-0.852-6.014
			c0-1.705,0.236-3.41,0.709-5.114c0.475-1.705,1.217-3.125,2.227-4.262c1.641-1.894,3.756-3.014,6.346-3.362
			c2.588-0.346,4.924-0.142,7.008,0.616c2.398,0.947,4.166,2.589,5.303,4.924c1.074,2.084,1.609,4.515,1.609,7.292
			c0,2.021-0.221,3.758-0.662,5.209c-0.441,1.453-1.012,2.684-1.705,3.693c-1.516,2.084-3.441,3.379-5.775,3.883
			c-2.084,0.568-4.186,0.615-6.299,0.143C161.878,61.463,160.189,60.657,158.927,59.522z M163.472,42.853
			c-1.326,1.453-1.926,3.614-1.799,6.487s0.664,4.877,1.609,6.014c0.379,0.506,1.043,0.934,1.988,1.279
			c0.947,0.348,1.91,0.377,2.889,0.094s1.848-0.994,2.605-2.131c0.758-1.135,1.168-2.967,1.23-5.492c0-2.273-0.363-3.978-1.09-5.115
			c-0.725-1.136-1.563-1.861-2.508-2.178c-0.947-0.315-1.895-0.331-2.842-0.047C164.609,42.048,163.914,42.412,163.472,42.853z"/>
		<path fill="#5A5B5D" d="M182.388,61.793V32.625c0-0.947,0.33-1.752,0.994-2.415c0.662-0.663,1.469-0.994,2.414-0.994h3.314v12.123
			h13.449V29.215h6.818v32.578h-6.818V47.305h-13.449v14.488H182.388z"/>
		<path fill="#5A5B5D" d="M219.462,29.121v20.362c0,2.525,0.473,4.389,1.422,5.588c1.008,1.135,2.617,1.705,4.828,1.705
			c2.146,0,3.756-0.57,4.83-1.705c1.01-1.137,1.516-2.998,1.516-5.588V29.121h6.723v21.12c0,4.041-1.135,7.102-3.408,9.186
			c-2.082,2.084-5.303,3.125-9.66,3.125c-4.355,0-7.576-1.041-9.66-3.125c-2.273-2.084-3.408-5.145-3.408-9.186V32.72
			c0-0.947,0.332-1.783,0.994-2.51c0.662-0.725,1.469-1.089,2.414-1.089H219.462z"/>
		<path fill="#5A5B5D" d="M241.953,61.793V32.625c0-0.947,0.332-1.752,0.994-2.415c0.664-0.663,1.469-0.994,2.416-0.994h11.932
			c3.348,0,5.902,0.696,7.672,2.084c1.766,1.515,2.652,3.567,2.652,6.156c0,1.642-0.348,3.03-1.043,4.167
			c-0.695,1.075-1.674,1.927-2.936,2.557c1.641,0.696,2.904,1.674,3.789,2.937c0.82,1.199,1.23,2.777,1.23,4.734
			c0,3.158-1.01,5.619-3.029,7.387c-2.084,1.705-5.021,2.557-8.809,2.557H241.953z M248.392,41.811h7.672
			c1.641,0,2.84-0.284,3.6-0.852c0.758-0.568,1.135-1.452,1.135-2.652c0-1.199-0.377-2.083-1.135-2.652
			c-0.633-0.504-1.863-0.758-3.695-0.758h-7.576V41.811z M248.392,55.922h7.957c1.766,0,3.125-0.346,4.072-1.041
			c0.883-0.633,1.324-1.707,1.324-3.221c0-1.516-0.441-2.619-1.324-3.314c-0.822-0.631-2.213-0.947-4.168-0.947h-7.861V55.922z"/>
	</g>
	<g>
		<g>
			<path fill="#5BA0BD" d="M52.79,56.307h-2.435c-0.696,0-1.265-0.219-1.705-0.66c-0.441-0.441-0.661-1.01-0.661-1.705v-9.463
				c0-1.113-0.337-1.924-1.009-2.435c-0.672-0.51-1.426-0.765-2.261-0.765c-0.835,0-1.578,0.255-2.227,0.765
				c-0.65,0.511-0.975,1.322-0.975,2.435v11.829h-4.87V45.453c0-3.154,0.823-5.264,2.47-6.332c1.646-1.066,3.467-1.646,5.462-1.739
				c2.041,0,3.919,0.534,5.637,1.6c1.714,1.068,2.574,3.225,2.574,6.471V56.307z"/>
		</g>
		<g>
			<path fill="#5BA0BD" d="M40.184,27.939l-2.755-7.289c1.598-1.353,2.615-3.371,2.615-5.623c0-4.062-3.304-7.365-7.365-7.365
				c-4.061,0-7.365,3.304-7.365,7.365c0,4.061,3.304,7.365,7.365,7.365c0.079,0,0.157-0.003,0.235-0.006l2.745,7.262L40.184,27.939z
				 M30.151,15.028c0-1.395,1.134-2.528,2.528-2.528s2.528,1.134,2.528,2.528c0,1.394-1.134,2.528-2.528,2.528
				S30.151,16.422,30.151,15.028z"/>
		</g>
		<g>
			<path fill="#5BA0BD" d="M26.165,53.325L25.129,48.6l-8.735,1.918c-1.277-2.195-3.653-3.674-6.369-3.674
				c-4.061,0-7.365,3.303-7.365,7.365c0,4.061,3.304,7.365,7.365,7.365c3.702,0,6.773-2.746,7.288-6.307L26.165,53.325z
				 M10.024,56.737c-1.394,0-2.528-1.133-2.528-2.527s1.134-2.527,2.528-2.527s2.529,1.133,2.529,2.527S11.418,56.737,10.024,56.737
				z"/>
		</g>
		<g>
			<path fill="#5BA0BD" d="M58.585,0.89c-5.068,0-9.191,4.123-9.191,9.191c0,3.024,1.469,5.711,3.729,7.387l-3.927,10.477
				l4.529,1.698l3.907-10.42c0.313,0.032,0.631,0.049,0.953,0.049c5.068,0,9.191-4.123,9.191-9.191
				C67.777,5.013,63.654,0.89,58.585,0.89z M58.585,14.436c-2.401,0-4.354-1.954-4.354-4.354c0-2.401,1.954-4.354,4.354-4.354
				s4.354,1.953,4.354,4.354C62.94,12.482,60.986,14.436,58.585,14.436z"/>
		</g>
		<g>
			<path fill="#5BA0BD" d="M47.736,75.465v-9.172h-4.837v9.521c-2.613,1.133-4.446,3.734-4.446,6.76
				c0,4.063,3.304,7.365,7.366,7.365c4.061,0,7.365-3.303,7.365-7.365C53.183,79.178,50.87,76.311,47.736,75.465z M45.818,85.104
				c-1.394,0-2.529-1.135-2.529-2.529c0-1.393,1.135-2.527,2.529-2.527s2.528,1.135,2.528,2.527
				C48.346,83.969,47.212,85.104,45.818,85.104z"/>
		</g>
		<g>
			<path fill="#5BA0BD" d="M70.563,66.612c-1.445,0-2.812,0.334-4.029,0.932l-7.293-8.154l-3.605,3.225l7.264,8.123
				c-0.964,1.453-1.528,3.193-1.528,5.066c0,5.068,4.123,9.191,9.191,9.191c5.068,0,9.192-4.123,9.192-9.191
				S75.631,66.612,70.563,66.612z M70.563,80.157c-2.4,0-4.354-1.953-4.354-4.354c0-2.402,1.954-4.355,4.354-4.355
				c2.401,0,4.355,1.953,4.355,4.355C74.918,78.204,72.964,80.157,70.563,80.157z"/>
		</g>
		<g>
			<path fill="#5BA0BD" d="M33.973,62.76l-3.643-3.182l-7.603,8.707c-1.173-0.545-2.478-0.852-3.854-0.852
				c-5.067,0-9.191,4.125-9.191,9.191c0,5.068,4.124,9.191,9.191,9.191c5.068,0,9.192-4.123,9.192-9.191
				c0-1.939-0.606-3.74-1.637-5.227L33.973,62.76z M18.874,80.981c-2.401,0-4.354-1.953-4.354-4.355c0-2.4,1.953-4.354,4.354-4.354
				c2.402,0,4.355,1.953,4.355,4.354C23.229,79.028,21.275,80.981,18.874,80.981z"/>
		</g>
		<g>
			<path fill="#5BA0BD" d="M28.141,35.632l-7.058-3.649c0.136-0.627,0.209-1.278,0.209-1.946c0-5.068-4.123-9.191-9.192-9.191
				c-5.067,0-9.19,4.123-9.19,9.191c0,5.068,4.123,9.191,9.19,9.191c2.664,0,5.066-1.14,6.746-2.957l7.073,3.657L28.141,35.632z
				 M12.101,34.392c-2.4,0-4.354-1.953-4.354-4.354c0-2.401,1.953-4.354,4.354-4.354c2.401,0,4.355,1.954,4.355,4.354
				C16.456,32.439,14.502,34.392,12.101,34.392z"/>
		</g>
		<g>
			<path fill="#5BA0BD" d="M74.245,19.483c-4.061,0-7.365,3.303-7.365,7.365c0,0.66,0.088,1.299,0.252,1.908l-8.622,5.811
				l2.704,4.011l8.638-5.822c1.227,0.915,2.748,1.457,4.393,1.457c4.061,0,7.365-3.303,7.365-7.365S78.306,19.483,74.245,19.483z
				 M74.245,29.376c-1.394,0-2.528-1.134-2.528-2.528c0-1.394,1.134-2.528,2.528-2.528c1.394,0,2.528,1.134,2.528,2.528
				C76.773,28.242,75.639,29.376,74.245,29.376z"/>
		</g>
		<g>
			<path fill="#4A869C" d="M61.214,38.577l5.065-3.414c-0.779-1.422-1.696-2.758-2.731-3.992l-5.038,3.395L61.214,38.577z"/>
		</g>
		<g>
			<path fill="#4A869C" d="M59.241,59.389l-3.605,3.225l3.675,4.109c1.3-0.961,2.503-2.047,3.589-3.242L59.241,59.389z"/>
		</g>
		<g>
			<path fill="#4A869C" d="M42.899,66.293v5.164c0.601,0.043,1.208,0.068,1.82,0.068c1.021,0,2.028-0.064,3.017-0.186v-5.047H42.899
				z"/>
		</g>
		<g>
			<path fill="#4A869C" d="M30.363,66.895l3.61-4.135l-3.643-3.182l-3.594,4.115C27.836,64.875,29.05,65.948,30.363,66.895z"/>
		</g>
		<g>
			<path fill="#4A869C" d="M26.165,53.325L25.129,48.6l-4.832,1.061c0.179,1.631,0.517,3.215,0.999,4.732L26.165,53.325z"/>
		</g>
		<g>
			<path fill="#4A869C" d="M25.919,39.929l2.222-4.296l-4.019-2.078c-0.877,1.346-1.626,2.782-2.229,4.293L25.919,39.929z"/>
		</g>
		<g>
			<path fill="#4A869C" d="M53.726,29.644l1.787-4.766c-1.438-0.705-2.954-1.272-4.533-1.687l-1.783,4.755L53.726,29.644z"/>
		</g>
		<g>
			<path fill="#4A869C" d="M35.66,29.649l4.524-1.71l-1.789-4.732c-1.578,0.419-3.093,0.991-4.528,1.699L35.66,29.649z"/>
		</g>
		<g>
			<g>
				<path fill="#5BA0BD" d="M44.719,23.21c-13.113,0-23.744,10.631-23.744,23.743c0,13.113,10.631,23.744,23.744,23.744
					c13.114,0,23.744-10.631,23.744-23.744C68.462,33.841,57.833,23.21,44.719,23.21z M44.719,63.915
					c-9.367,0-16.96-7.594-16.96-16.961c0-9.366,7.593-16.959,16.96-16.959s16.96,7.594,16.96,16.959
					C61.679,56.321,54.085,63.915,44.719,63.915z"/>
			</g>
		</g>
	</g>
</g>
</svg>
